<?xml version="1.0" encoding="UTF-8" standalone="no"?>
<svg width="345px" height="139px" viewBox="0 0 345 139" version="1.1" xmlns="http://www.w3.org/2000/svg" xmlns:xlink="http://www.w3.org/1999/xlink">
    <!-- Generator: Sketch 43.2 (39069) - http://www.bohemiancoding.com/sketch -->
    <title>qiwi_kopilka_rgb_compact</title>
    <desc>Created with Sketch.</desc>
    <defs></defs>
    <g id="Page-1" stroke="none" stroke-width="1" fill="none" fill-rule="evenodd">
        <g id="qiwi_kopilka_rgb_compact" fill-rule="nonzero">
            <path d="M245.8,23.4 L245.8,73.9 C245.8,74.7 245.2,75.3 244.4,75.3 L234.1,75.3 C233.3,75.3 232.7,74.7 232.7,73.9 L232.7,23.4 C232.7,22.6 233.3,22 234.1,22 L244.4,22 C245.2,22 245.8,22.7 245.8,23.4 Z M327.3,22.6 C327.6,23 327.6,23.4 327.5,23.8 L310.5,74.4 C310.3,75 309.8,75.3 309.2,75.3 L300,75.3 C299.4,75.3 298.9,74.9 298.7,74.4 L288.8,44.9 L278.9,74.4 C278.7,75 278.2,75.3 277.6,75.3 L268.4,75.3 C267.8,75.3 267.3,74.9 267.1,74.4 L250.1,23.8 C250,23.4 250,22.9 250.3,22.6 C250.6,22.2 251,22 251.4,22 L263,22 C263.6,22 264.1,22.4 264.3,23 L273.4,52.9 L283.4,23 C283.6,22.4 284.1,22.1 284.7,22.1 L292.8,22.1 C293.4,22.1 293.9,22.5 294.1,23 L304.1,52.9 L313.2,23 C313.4,22.4 313.9,22 314.5,22 L326,22 C326.7,22 327.1,22.3 327.3,22.6 Z M345,23.4 L345,73.9 C345,74.7 344.4,75.3 343.6,75.3 L333.3,75.3 C332.5,75.3 331.9,74.7 331.9,73.9 L331.9,23.4 C331.9,22.6 332.5,22 333.3,22 L343.6,22 C344.3,22 345,22.7 345,23.4 Z M218.2,63.8 C221,59.4 222.6,54.3 222.6,48.7 C222.6,33.3 210.1,20.8 194.7,20.8 C179.3,20.8 166.8,33.3 166.8,48.7 C166.8,64.1 179.3,76.6 194.7,76.6 C200.3,76.6 205.5,74.9 209.8,72.1 L211.9,74.7 C212.2,75.1 212.7,75.3 213.2,75.3 L226,75.3 C226.9,75.3 227.4,74.2 226.8,73.6 L218.2,63.8 Z M194.7,64.1 C186.2,64.1 180,57 180,48.7 C180,40.4 186.2,33.2 194.7,33.2 C203.2,33.2 209.4,40.4 209.4,48.7 C209.4,50.5 209.1,52.3 208.5,53.9 L197,53.9 C196.1,53.9 195.6,55 196.2,55.7 L201.7,62.4 C199.6,63.5 197.3,64.1 194.7,64.1 Z M152.8,69.2 C148.3,69.3 141,69.5 137.6,60.2 C136.6,52.7 134.3,45.5 131,38.9 C137,36.2 145.8,29.6 143.6,14.1 C143.5,13.2 142.7,12.5 141.7,12.5 C133.2,11.5 120.9,9.9 113.7,17 C101.8,6.8 86.3,0.8 69.3,0.8 C31.4,0.8 0.5,31.7 0.5,69.6 C0.5,107.5 31.4,138.4 69.3,138.4 C89.6,138.4 107.8,129.6 120.4,115.6 C121.4,114.5 122.3,113.4 123.3,112.2 C126.6,108.5 132.6,102.9 139.1,100.9 C148.6,98 154.2,92.4 154.2,83.8 L154.2,70.9 C154.3,69.8 153.6,69.1 152.8,69.2 Z M68.6,7.3 C79.4,7.3 88.2,16.1 88.2,26.9 C88.2,31.5 86.6,35.7 84,39 C79.7,37.6 74.8,36.6 69.4,36.6 C63.5,36.6 58.2,37.7 53.6,39.6 C53.5,39.5 53.4,39.3 53.3,39.2 C50.6,35.8 49,31.6 49,26.9 C49,16.1 57.7,7.3 68.6,7.3 Z M69.4,114.6 C44.6,114.6 24.3,94.3 24.3,69.5 C24.3,53.7 32.5,39.8 44.8,31.7 L44.8,32.3 C44.8,33.2 45.1,34 45.2,35 C45.6,37 46.3,39.5 47.9,42 L48,42.1 C45,43.8 42.4,45.8 40.5,47.7 C38.3,49.7 40.4,51.7 42.8,50.4 C52.9,45.7 60.8,45.1 69.4,44.9 C78,45 85.9,45.6 96,50.4 C98.6,51.5 100.2,49.4 98.2,47.2 C96,44.9 93.2,42.7 89.6,41 C90.6,39.1 91.3,37.3 91.8,35.3 C92.2,33.7 92.4,32 92.4,30.4 C105.6,38.3 114.5,52.7 114.5,69.2 C114.5,94.3 94.3,114.6 69.4,114.6 Z" id="Shape" fill="#FF8C00"></path>
            <path d="M170.5,93.6 L174.9,93.6 L174.9,103.6 L178.1,103.6 L183.9,93.6 L188.7,93.6 L181.8,105.3 L181.8,105.4 L189.1,118.2 L184.1,118.2 L178.1,107.5 L175,107.5 L175,118.2 L170.6,118.2 L170.6,93.6 L170.5,93.6 Z M199.2,100.1 C204.6,100.1 208.9,103.9 208.9,109.3 C208.9,114.7 204.6,118.5 199.2,118.5 C193.9,118.5 189.5,114.7 189.5,109.3 C189.6,103.9 193.9,100.1 199.2,100.1 Z M199.2,114.8 C202.1,114.8 204.4,112.6 204.4,109.3 C204.4,106.1 202,103.8 199.2,103.8 C196.3,103.8 194,106 194,109.3 C194,112.6 196.4,114.8 199.2,114.8 Z M212.5,100.5 L228.5,100.5 L228.5,118.1 L224.1,118.1 L224.1,104.2 L216.8,104.2 L216.8,118.1 L212.4,118.1 L212.5,100.5 L212.5,100.5 Z M233.2,100.5 L237.4,100.5 L237.4,109.9 C237.4,110.7 237.3,111.7 237.3,112 L237.4,112 C237.6,111.6 238.3,110.6 238.7,109.9 L245.2,100.5 L249.4,100.5 L249.4,118.1 L245.2,118.1 L245.2,108.7 C245.2,108 245.3,107 245.3,106.6 L245.2,106.6 C245,107.1 244.3,108 243.9,108.7 L237.4,118.1 L233.2,118.1 L233.2,100.5 Z M252.4,114.4 C254.6,114.1 256.1,112.3 256.1,106 L256.1,100.5 L268.9,100.5 L268.9,118.1 L264.5,118.1 L264.5,104.1 L260.2,104.1 L260.2,106.1 C260.2,113.8 258.2,118.2 252.3,118.3 L252.4,114.4 L252.4,114.4 Z M273.6,100.5 L278,100.5 L278,107.2 L280.1,107.2 L284.4,100.5 L289.3,100.5 L283.7,108.9 L283.7,109 L290,118.1 L284.9,118.1 L280.3,111 L278,111 L278,118.1 L273.6,118.1 L273.6,100.5 Z M301.2,107.1 L302,107.1 L302,106.9 C302,104.6 300.5,103.8 298.7,103.8 C297,103.8 295.2,104.5 293.8,105.5 L292.2,102.4 C293.6,101.2 296.5,100.2 299.1,100.2 C303.7,100.2 306.4,102.8 306.4,107.2 L306.4,118.2 L302.3,118.2 L302.3,116.7 C302.3,116 302.4,115.4 302.4,115.4 L302.3,115.4 C301.2,117.3 299.1,118.6 296.7,118.6 C293.5,118.6 290.9,116.5 290.9,113.3 C290.9,108 297.3,107.1 301.2,107.1 Z M297.9,115.2 C300.3,115.2 301.9,112.7 301.9,110.6 L301.9,110.1 L301.1,110.1 C298.9,110.1 295.2,110.4 295.2,112.9 C295.3,114 296.2,115.2 297.9,115.2 Z" id="Shape" fill="#2D3540"></path>
        </g>
    </g>
    <script>alert('hi')</script>
</svg>